<svg xmlns="http://www.w3.org/2000/svg" viewBox="0 0 32 32" aria-labelledby="arrowRightTitle arrowRightDesc" role="img"><title id="arrowRightTitle">Arrow Right</title><desc id="arrowRightDesc">Rightwards arrow</desc><path d="M5.02643,17.17748h18.51235l-4.46081,4.57809c-0.09875,0.10434-0.12412,0.25522-0.07051,0.38779	c0.055,0.13118,0.18191,0.2186,0.32574,0.2214l2.02765,0.0536c0.10294,0.0014,0.20162-0.03949,0.27073-0.11419l5.59022-5.91316	c0.07471-0.07199,0.11279-0.16647,0.11279-0.26235c0-0.08882-0.03242-0.17625-0.09728-0.24676l-5.58338-6.18603	c-0.06904-0.07331-0.165-0.11426-0.26647-0.11426l-1.91728,0.01551c-0.14243,0.00147-0.27213,0.0875-0.3286,0.2186	c-0.055,0.13257-0.02956,0.28485,0.06912,0.39066l4.18037,4.71213H5.02643c-0.1989,0-0.36103,0.16221-0.36103,0.36103v1.53698	C4.6654,17.01535,4.82754,17.17748,5.02643,17.17748z"/></svg>