<svg xmlns="http://www.w3.org/2000/svg" viewBox="0 0 32 32" aria-labelledby="arrowLeftTitle arrowLeftDesc" role="img"><title id="arrowLeftTitle">Arrow Left</title><desc id="arrowLeftDesc">Leftwards arrow</desc><path d="M26.97357,17.17748H8.46121l4.46081,4.57809c0.09875,0.10434,0.12412,0.25522,0.07051,0.38779	c-0.055,0.13118-0.18191,0.2186-0.32574,0.2214l-2.02765,0.0536c-0.10294,0.0014-0.20162-0.03949-0.27074-0.11419L4.7782,16.39101	c-0.07471-0.07199-0.11279-0.16647-0.11279-0.26235c0-0.08882,0.03243-0.17625,0.09728-0.24676l5.58338-6.18603	c0.06904-0.07331,0.165-0.11426,0.26647-0.11426l1.91728,0.01551c0.14243,0.00147,0.27213,0.0875,0.3286,0.2186	c0.055,0.13257,0.02956,0.28485-0.06912,0.39066l-4.18037,4.71213h18.36463c0.1989,0,0.36103,0.16221,0.36103,0.36103v1.53698	C27.33459,17.01535,27.17246,17.17748,26.97357,17.17748z"/></svg>