<svg xmlns="http://www.w3.org/2000/svg" viewBox="0 0 32 32" aria-labelledby="maintenanceModeTitle maintenanceModeDesc" role="img"><title id="maintenanceModeTitle">Maintenance Mode</title><desc id="maintenanceModeDesc">Maintenance Mode</desc><path d="M4.732 29.585a11.42 11.42 0 0 1 11.111-10.943c.43 0 .86.028 1.288.081a7.3 7.3 0 0 1 .57-.787l.173-.214.4-.42a12.07 12.07 0 0 0-2.434-.269c-7.025 0-12.74 5.992-12.74 13.356a.8.8 0 0 0 .8.8h6.236a3.48 3.48 0 0 1-.212-1.609l-5.192.005zM15.58 14.416A7.208 7.208 0 1 0 8.38 7.2v.01a7.208 7.208 0 0 0 7.2 7.206zm0-12.807a5.6 5.6 0 1 1-5.595 5.605v-.005a5.606 5.606 0 0 1 5.595-5.6zM28.428 20.4a.42.42 0 0 0-.636-.169l-2.185 1.636-.1.073-1.007.76-.387.29-.562-.751-.31-.414.064-.048.044-.033 1.261-.944.025-.019 2.3-1.723a.42.42 0 0 0 .024-.653 5.653 5.653 0 0 0-6.388-.683c-.091.05-.177.112-.267.164a4.285 4.285 0 0 0-.4.247l-.018.013a5.52 5.52 0 0 0-.744.684c-.084.091-.155.192-.233.288a5.66 5.66 0 0 0-1.032 5.182L12.3 28.482a1.809 1.809 0 0 0-.434 2.437c.024.037.041.077.068.112l.186.248c.237.316.57.547.95.656.034.01.069.01.1.018a1.809 1.809 0 0 0 1.49-.3h.006l5.621-4.21a5.621 5.621 0 0 0 6.338-.259l.018-.014a5.609 5.609 0 0 0 1.785-6.77zm-2.8 5.433a3.937 3.937 0 0 1-4.458.183h-.007a1.67 1.67 0 0 0-1.873.079h-.005l-5.621 4.21a.151.151 0 0 1-.134.022.141.141 0 0 1-.076-.052l-.186-.249a.139.139 0 0 1-.027-.111c0-.018.017-.027.024-.041a.136.136 0 0 1 .034-.059l5.581-4.18a1.67 1.67 0 0 0 .6-1.825 3.962 3.962 0 0 1 1.106-4.05c.044-.041.082-.087.128-.126s.087-.077.131-.116l.1-.075a3.854 3.854 0 0 1 1.281-.583c.053-.014.1-.039.156-.051a4 4 0 0 1 2.03.048l-1.011.757-.038.029-1.117.837a1.66 1.66 0 0 0-.143.131c-.017.016-.026.038-.042.055a1.651 1.651 0 0 0-.467.913c-.063.439.05.884.316 1.239l.306.408.566.756a1.675 1.675 0 0 0 2.333.34h.005l2.11-1.582a3.965 3.965 0 0 1-1.603 3.094l.001-.001z"/></svg>