<?xml version="1.0" encoding="UTF-8"?><svg id="black-blue" xmlns="http://www.w3.org/2000/svg" viewBox="0 0 334 146"><defs><style>.cls-1{fill:#3beedd;}.cls-2{fill:#6d6e70;}</style></defs><g><path d="M32.42,32.7h52.03c9.29,0,13.52,3,13.52,11.2v12.84c0,8.06-4.23,11.2-13.52,11.2H46.35v22.53h-13.93V32.7Zm13.93,9.97v15.29h32.09c4.23,0,6.42-.82,6.42-4.64v-6.01c0-3.83-2.19-4.64-6.42-4.64H46.35Z"/><polygon points="99.96 32.7 114.17 32.7 114.17 79.68 159.51 79.68 159.51 90.47 99.96 90.47 99.96 32.7"/><polygon points="251.95 60.84 222.86 32.7 241.71 32.7 261.1 51.42 279.4 32.7 295.66 32.7 269.29 59.2 301.8 90.47 282.54 90.47 260.42 68.9 240.07 90.47 223.41 90.47 251.95 60.84"/><g><rect class="cls-1" x="161.5" y="79.68" width="59.54" height="10.78"/><rect class="cls-1" x="161.5" y="32.7" width="59.54" height="10.78"/><rect class="cls-1" x="161.5" y="56.19" width="59.54" height="10.78"/></g></g><g><path class="cls-2" d="M123.76,112.51c0,.76-.04,1.38-.21,1.91-.38,1.21-1.32,2.01-2.75,2.01-.81,0-1.48-.33-1.92-.93-.03-.04-.07-.03-.07,.01v.64c0,.09-.06,.15-.15,.15h-.76c-.09,0-.15-.06-.15-.15v-10.2c0-.09,.06-.15,.15-.15h.76c.09,0,.15,.06,.15,.15v3.54s.03,.06,.07,.01c.44-.58,1.11-.92,1.92-.92,1.46,0,2.42,.81,2.77,2.06,.14,.51,.18,1.12,.18,1.86Zm-1.06,0c0-1.04-.12-1.48-.35-1.89-.25-.65-.85-1.09-1.67-1.09s-1.33,.46-1.57,1.12c-.19,.4-.29,.85-.29,1.86s.09,1.44,.27,1.83c.24,.67,.78,1.16,1.6,1.16s1.48-.45,1.73-1.17c.18-.41,.27-.84,.27-1.82Z"/><path class="cls-2" d="M125.35,119.15v-.6c0-.09,.06-.15,.15-.15h.06c1.12-.01,1.46-.38,1.96-2.05,.02-.03,.02-.08,0-.09l-2.53-7.38c-.03-.1,.01-.17,.12-.17h.8c.07,0,.15,.04,.18,.12l1.95,6.06s.07,.04,.09,0l1.92-6.06c.03-.08,.1-.12,.18-.12h.78c.1,0,.15,.06,.12,.17l-2.77,8.08c-.68,1.92-1.12,2.34-2.79,2.34h-.1c-.06,0-.1-.06-.1-.15Z"/><path class="cls-2" d="M140.98,116.17l-1.88-4.16s-.06-.06-.09-.06h-1.4s-.08,.03-.08,.08v4.09c0,.1-.07,.18-.18,.18h-1.76c-.1,0-.18-.08-.18-.18v-10.14c0-.11,.07-.18,.18-.18h4.29c1.94,0,3.21,1.26,3.21,3.17,0,1.37-.73,2.37-1.94,2.78-.04,.01-.06,.06-.04,.1l2.04,4.25c.06,.13,0,.21-.14,.21h-1.84c-.09,0-.17-.03-.21-.13Zm-3.44-8.47v2.56s.03,.08,.08,.08h1.96c.84,0,1.42-.54,1.42-1.35s-.58-1.37-1.42-1.37h-1.96s-.08,.03-.08,.08Z"/><path class="cls-2" d="M144.43,112.66v-3.21c0-2.25,1.57-3.76,3.94-3.76s3.96,1.51,3.96,3.76v3.21c0,2.28-1.58,3.81-3.96,3.81s-3.94-1.53-3.94-3.81Zm5.79,.07v-3.3c0-1.17-.73-1.93-1.84-1.93s-1.83,.76-1.83,1.93v3.3c0,1.16,.73,1.92,1.83,1.92s1.84-.76,1.84-1.92Z"/><path class="cls-2" d="M153.74,112.78v-3.46c0-2.19,1.54-3.63,3.9-3.63s3.88,1.38,3.88,3.46c0,.09-.06,.15-.18,.17l-1.75,.1c-.12,.01-.18-.04-.18-.17,0-1.05-.7-1.75-1.77-1.75s-1.79,.71-1.79,1.75v3.62c0,1.03,.71,1.74,1.79,1.74s1.77-.71,1.77-1.74c0-.11,.06-.17,.18-.17l1.75,.08c.1,0,.18,.06,.18,.15,0,2.1-1.56,3.5-3.88,3.5s-3.9-1.46-3.9-3.64Z"/><path class="cls-2" d="M163.07,116.13v-10.14c0-.11,.07-.18,.18-.18h1.76c.1,0,.18,.08,.18,.18v4.2c0,.06,.04,.08,.09,.03l3.47-4.3c.06-.08,.13-.11,.22-.11h1.98c.15,0,.21,.11,.12,.23l-3.34,4.27s-.03,.08-.02,.11l3.54,5.68c.08,.13,.02,.21-.12,.21h-1.98c-.09,0-.17-.03-.21-.12l-2.67-4.32s-.08-.04-.1,0l-.94,1.18s-.03,.06-.03,.09v2.99c0,.1-.07,.18-.18,.18h-1.76c-.1,0-.18-.08-.18-.18Z"/><path class="cls-2" d="M174.58,116.15l-2.65-10.15c-.03-.13,.03-.2,.15-.2h1.86c.1,0,.16,.05,.2,.15l1.42,6.1c.02,.08,.08,.08,.09,0l1.38-6.09c.03-.1,.09-.17,.2-.17h1.81c.11,0,.18,.05,.21,.15l1.5,6.1c.01,.06,.08,.08,.09,0l1.38-6.09c.03-.1,.09-.17,.2-.17h1.77c.12,0,.2,.06,.17,.2l-2.46,10.15c-.03,.11-.11,.15-.21,.15h-1.78c-.11,0-.17-.04-.2-.15l-1.53-6.49c-.01-.08-.08-.08-.09,0l-1.42,6.48c-.02,.11-.09,.17-.2,.17h-1.67c-.1,0-.18-.04-.21-.15Z"/><path class="cls-2" d="M192.64,107.62h-4.92s-.08,.03-.08,.08v2.32s.03,.08,.08,.08h3.22c.1,0,.18,.08,.18,.18v1.45c0,.11-.08,.18-.18,.18h-3.22s-.08,.03-.08,.07v2.43s.03,.08,.08,.08h4.92c.1,0,.18,.07,.18,.18v1.46c0,.1-.08,.18-.18,.18h-6.93c-.1,0-.18-.08-.18-.18v-10.14c0-.11,.08-.18,.18-.18h6.93c.1,0,.18,.08,.18,.18v1.46c0,.1-.08,.18-.18,.18Z"/><path class="cls-2" d="M194.29,116.13v-10.14c0-.11,.08-.18,.18-.18h1.75c.11,0,.18,.08,.18,.18v8.43s.03,.08,.08,.08h4.9c.11,0,.18,.07,.18,.18v1.46c0,.1-.07,.18-.18,.18h-6.92c-.1,0-.18-.08-.18-.18Z"/><path class="cls-2" d="M202.87,116.13v-10.14c0-.11,.08-.18,.18-.18h1.75c.11,0,.18,.08,.18,.18v8.43s.03,.08,.08,.08h4.9c.11,0,.18,.07,.18,.18v1.46c0,.1-.07,.18-.18,.18h-6.92c-.1,0-.18-.08-.18-.18Z"/><path class="cls-2" d="M220.93,116.15l-.45-1.47s-.03-.06-.08-.06h-3.69s-.06,.03-.07,.06l-.44,1.47c-.03,.09-.09,.15-.2,.15h-1.9c-.12,0-.2-.08-.15-.21l3.24-10.14c.03-.09,.09-.15,.2-.15h2.35c.1,0,.17,.06,.19,.15l3.24,10.14c.04,.13-.03,.21-.15,.21h-1.9c-.11,0-.17-.06-.2-.15Zm-3.69-3.16h2.64s.08-.03,.06-.09l-1.35-4.45c-.01-.08-.07-.06-.09,0l-1.32,4.45c-.01,.06,.02,.09,.06,.09Z"/><path class="cls-2" d="M224.23,112.83v-6.84c0-.11,.07-.18,.18-.18h1.75c.1,0,.18,.08,.18,.18v6.85c0,1.05,.7,1.77,1.77,1.77s1.77-.72,1.77-1.77v-6.85c0-.11,.08-.18,.18-.18h1.76c.1,0,.18,.08,.18,.18v6.84c0,2.16-1.56,3.6-3.88,3.6s-3.88-1.44-3.88-3.6Z"/><path class="cls-2" d="M241.16,105.99v1.47c0,.1-.08,.18-.18,.18h-2.68s-.08,.03-.08,.08v8.42c0,.1-.07,.18-.18,.18h-1.75c-.1,0-.18-.08-.18-.18v-8.42s-.03-.08-.07-.08h-2.61c-.11,0-.18-.08-.18-.18v-1.47c0-.11,.08-.18,.18-.18h7.56c.11,0,.18,.08,.18,.18Z"/><path class="cls-2" d="M241.88,112.66v-3.21c0-2.25,1.58-3.76,3.95-3.76s3.96,1.51,3.96,3.76v3.21c0,2.28-1.58,3.81-3.96,3.81s-3.95-1.53-3.95-3.81Zm5.79,.07v-3.3c0-1.17-.74-1.93-1.84-1.93s-1.83,.76-1.83,1.93v3.3c0,1.16,.73,1.92,1.83,1.92s1.84-.76,1.84-1.92Z"/><path class="cls-2" d="M258.37,105.81h1.76c.1,0,.18,.08,.18,.18v10.14c0,.1-.08,.18-.18,.18h-1.76c-.1,0-.18-.08-.18-.18v-6.62c0-.08-.06-.08-.09-.01l-1.59,2.49c-.04,.08-.12,.12-.21,.12h-.88c-.09,0-.17-.04-.21-.12l-1.59-2.49c-.03-.06-.09-.04-.09,.03v6.6c0,.1-.08,.18-.18,.18h-1.76c-.11,0-.18-.08-.18-.18v-10.14c0-.11,.07-.18,.18-.18h1.76c.09,0,.16,.05,.21,.12l2.25,3.5c.03,.06,.06,.06,.09,0l2.27-3.5c.04-.07,.12-.12,.21-.12Z"/><path class="cls-2" d="M268.61,116.15l-.45-1.47s-.03-.06-.08-.06h-3.69s-.06,.03-.08,.06l-.43,1.47c-.03,.09-.09,.15-.2,.15h-1.91c-.12,0-.19-.08-.15-.21l3.24-10.14c.03-.09,.09-.15,.2-.15h2.35c.11,0,.17,.06,.2,.15l3.24,10.14c.04,.13-.03,.21-.15,.21h-1.9c-.11,0-.17-.06-.2-.15Zm-3.69-3.16h2.64s.08-.03,.06-.09l-1.35-4.45c-.02-.08-.08-.06-.09,0l-1.32,4.45c-.02,.06,.01,.09,.06,.09Z"/><path class="cls-2" d="M278.33,105.99v1.47c0,.1-.08,.18-.18,.18h-2.68s-.08,.03-.08,.08v8.42c0,.1-.07,.18-.18,.18h-1.75c-.1,0-.18-.08-.18-.18v-8.42s-.03-.08-.07-.08h-2.61c-.11,0-.18-.08-.18-.18v-1.47c0-.11,.08-.18,.18-.18h7.56c.11,0,.18,.08,.18,.18Z"/><path class="cls-2" d="M279.68,116.13v-10.14c0-.11,.07-.18,.18-.18h1.75c.1,0,.18,.08,.18,.18v10.14c0,.1-.08,.18-.18,.18h-1.75c-.11,0-.18-.08-.18-.18Z"/><path class="cls-2" d="M283.42,112.66v-3.21c0-2.25,1.57-3.76,3.95-3.76s3.96,1.51,3.96,3.76v3.21c0,2.28-1.57,3.81-3.96,3.81s-3.95-1.53-3.95-3.81Zm5.79,.07v-3.3c0-1.17-.73-1.93-1.84-1.93s-1.83,.76-1.83,1.93v3.3c0,1.16,.73,1.92,1.83,1.92s1.84-.76,1.84-1.92Z"/><path class="cls-2" d="M299.15,105.81h1.75c.11,0,.18,.08,.18,.18v10.14c0,.1-.08,.18-.18,.18h-1.69c-.09,0-.17-.03-.21-.12l-3.88-6.42c-.03-.06-.09-.04-.09,.03l.03,6.33c0,.1-.08,.18-.18,.18h-1.75c-.11,0-.18-.08-.18-.18v-10.14c0-.11,.07-.18,.18-.18h1.7c.09,0,.16,.03,.21,.12l3.87,6.39c.03,.06,.09,.04,.09-.03v-6.3c-.01-.11,.06-.18,.17-.18Z"/></g></svg>